{"title":"Nancy 2018 1080p WEB-DL DD 2.0 x264 [MW]","magnet":"magnet:?xt=urn:btih:6da6d559fd433e632f63c06604b0e6a99c6770d5&dn=Nancy+2018+1080p+WEB-DL+DD+2.0+x264+%5BMW%5D&tr=udp%3A%2F%2Ftracker.leechers-paradise.org%3A6969&tr=udp%3A%2F%2Fzer0day.ch%3A1337&tr=udp%3A%2F%2Fopen.demonii.com%3A1337&tr=udp%3A%2F%2Ftracker.coppersurfer.tk%3A6969&tr=udp%3A%2F%2Fexodus.desync.com%3A6969","uploader":"MFreaky","categoryP":"video","categoryS":"hd___movies","size":"1960929740","seeders":"9","leechers":"14","description":" <a href=\"https://pichub.site/image/DFoeB\" rel=\"nofollow\" target=\"_NEW\">https://pichub.site/image/DFoeB</a> <a href=\"\nhttps://pichub.site/image/DF2kY\" rel=\"nofollow\" target=\"_NEW\">\nhttps://pichub.site/image/DF2kY</a> <a href=\"\nhttps://pichub.site/image/DFlHt\" rel=\"nofollow\" target=\"_NEW\">\nhttps://pichub.site/image/DFlHt</a> <a href=\"\nhttps://pichub.site/image/DF5v6\" rel=\"nofollow\" target=\"_NEW\">\nhttps://pichub.site/image/DF5v6</a> <a href=\"\nhttps://pichub.site/image/DFPD4\" rel=\"nofollow\" target=\"_NEW\">\nhttps://pichub.site/image/DFPD4</a>\r\n\r\nIMDB <a href=\"\nhttps://www.imdb.com/title/tt6509058/\" rel=\"nofollow\" target=\"_NEW\">\nhttps://www.imdb.com/title/tt6509058/</a>\r\n\r\nVideo\r\nFormat                                   : AVC\r\nFormat/Info                              : Advanced Video Codec\r\nFormat profile                           : High@L4.1\r\nFormat settings                          : CABAC / 4 Ref Frames\r\nFormat settings, CABAC                   : Yes\r\nFormat settings, RefFrames               : 4 frames\r\nCodec ID                                 : V_MPEG4/ISO/AVC\r\nDuration                                 : 1 h 26 min\r\nBit rate                                 : 2 811 kb/s\r\nNominal bit rate                         : 3 000 kb/s\r\nWidth                                    : 1 920 pixels\r\nHeight                                   : 1 080 pixels\r\nDisplay aspect ratio                     : 16:9\r\nFrame rate mode                          : Constant\r\nFrame rate                               : 23.976 (24000/1001) FPS\r\nColor space                              : YUV\r\nChroma subsampling                       : 4:2:0\r\nBit depth                                : 8 bits\r\nScan type                                : Progressive\r\nBits/(Pixel*Frame)                       : 0.057\r\nStream size                              : 1.69 GiB (93%)\r\nWriting library                          : x264 core 155 r2901 7d0ff22\r\n\r\nAudio\r\nFormat                                   : E-AC-3\r\nFormat/Info                              : Enhanced Audio Coding 3\r\nCodec ID                                 : A_EAC3\r\nDuration                                 : 1 h 26 min\r\nBit rate mode                            : Constant\r\nBit rate                                 : 224 kb/s\r\nChannel(s)                               : 2 channels\r\nChannel positions                        : Front: L R\r\nSampling rate                            : 48.0 kHz\r\nFrame rate                               : 187.500 FPS (256 SPF)\r\nCompression mode                         : Lossy\r\nStream size                              : 138 MiB (7%)\r\nLanguage                                 : English\r\nService kind                             : Complete Main","last_updated":"2018-09-11T12:09:10.190Z","parsed":{"xt":"urn:btih:6da6d559fd433e632f63c06604b0e6a99c6770d5","dn":"Nancy 2018 1080p WEB-DL DD 2.0 x264 [MW]","tr":["udp://exodus.desync.com:6969","udp://open.demonii.com:1337","udp://tracker.coppersurfer.tk:6969","udp://tracker.leechers-paradise.org:6969","udp://zer0day.ch:1337"],"infoHash":"6da6d559fd433e632f63c06604b0e6a99c6770d5","infoHashBuffer":{"type":"Buffer","data":[109,166,213,89,253,67,62,99,47,99,192,102,4,176,230,169,156,103,112,213]},"name":"Nancy 2018 1080p WEB-DL DD 2.0 x264 [MW]","announce":["udp://exodus.desync.com:6969","udp://open.demonii.com:1337","udp://tracker.coppersurfer.tk:6969","udp://tracker.leechers-paradise.org:6969","udp://zer0day.ch:1337"],"urlList":[]}}